# xmcd CD database file
#
# Track frame offsets:
#	150
#	19880
#	37845
#	52942
#	69607
#	85266
#	106357
#	130334
#	148645
#	167166
#	183060
#	198471
#	211001
#	231053
#	247785
#	263125
#
# Disc length: 3916 seconds
#
# Revision: 2
# Processed by: cddbd v1.5.2PL0 Copyright (c) Steve Scherf et al.
# Submitted via: CDex 1.51
#
DISCID=d10f4a10
DTITLE=Various Artist - 100% Blues [CD1]
DYEAR=2002
DGENRE=Blues
TTITLE0=Eric Claptom/B.B.King - Riding With the King
TTITLE1=Stevie Ray Vaughn - Cold Shot
TTITLE2=The Fabulous Thunderbirds - Tuff Enuff
TTITLE3=Chris Whitley - Living With the Law
TTITLE4=Keb' Mo' - Kindhearted Woman Blues
TTITLE5=Stevie Ray Vaughn - Couldn't Stand the Weather
TTITLE6=Jeff Healey - Angel Eyes
TTITLE7=George Thorogood and The Destroyers - Willie and the Hand Jive
TTITLE8=Robert Cray - Smoking Gun
TTITLE9=Hammond Gamble - Groom Still Waiting
TTITLE10=Roy Buchanan - Supernova
TTITLE11=Albert King - Born Under a Bad Sign
TTITLE12=Dr. John - Basin Street Blues
TTITLE13=Tony Joe White - Polk Salad Annie
TTITLE14=Georgia Satellites - Keep Your Hands to Yourself
TTITLE15=Gary Moore - Still Got the Blues (For You) LIVE
EXTD=YEAR: 2002
EXTT0=
EXTT1=
EXTT2=
EXTT3=
EXTT4=
EXTT5=
EXTT6=
EXTT7=
EXTT8=
EXTT9=
EXTT10=
EXTT11=
EXTT12=
EXTT13=
EXTT14=
EXTT15=
PLAYORDER=
